<?xml version="1.0"?>
<svg xmlns="http://www.w3.org/2000/svg" height="512px" viewBox="-10 0 464 464" width="512px" class=""><g><path d="m222.175781 77.585938c19.511719-16.3125 32.550781-38.496094 37.601563-62.898438-9.90625 4.542969-23.609375 9.3125-37.601563 9.3125-13.992187 0-27.695312-4.769531-37.601562-9.3125 5.050781 24.410156 18.089843 46.585938 37.601562 62.898438zm0 0" data-original="#000000" class="active-path" data-old_color="#9E5555" fill="#FF4500"/><path d="m56.574219 123.199219c6.019531 8.015625 15.585937 12.800781 25.601562 12.800781h8.578125c6.972656-41.816406 10.71875-84.238281 11.246094-126.921875l-16.792969 2.097656c-20.527343 2.566407-37.894531 16.160157-45.320312 35.464844l-22.0625 57.359375h.351562c15.023438 0 29.382813 7.175781 38.398438 19.199219zm0 0" data-original="#000000" class="active-path" data-old_color="#9E5555" fill="#FF4500"/><path d="m150.175781 348.6875 42.0625-42.0625c3.824219-3.824219 5.9375-8.921875 5.9375-14.34375 0-11.175781-9.105469-20.28125-20.28125-20.28125-5.421875 0-10.511719 2.113281-14.34375 5.9375l-13.375 13.375-13.375-13.375c-3.824219-3.824219-8.921875-5.9375-14.34375-5.9375-11.175781 0-20.28125 9.105469-20.28125 20.28125 0 5.421875 2.113281 10.511719 5.9375 14.34375zm0 0" data-original="#000000" class="active-path" data-old_color="#9E5555" fill="#FF4500"/><path d="m362.175781 136c10.015625 0 19.585938-4.785156 25.601563-12.800781 9.015625-12.023438 23.375-19.199219 38.398437-19.199219h.351563l-22.0625-57.351562c-7.425782-19.3125-24.792969-32.894532-45.320313-35.464844l-16.792969-2.09375c.527344 42.671875 4.265626 85.09375 11.25 126.910156zm0 0" data-original="#000000" class="active-path" data-old_color="#9E5555" fill="#FF4500"/><path d="m436.335938 417.03125c-16.175782 15.226562-31.671876 22.96875-46.160157 22.96875-17.886719 0-30.945312-6.527344-43.574219-12.839844-11.480468-5.734375-22.3125-11.160156-36.425781-11.160156-13.34375 0-23.601562 4.753906-35.472656 10.257812-13.894531 6.4375-29.65625 13.742188-52.527344 13.742188-22.871093 0-38.632812-7.304688-52.527343-13.742188-11.871094-5.503906-22.128907-10.257812-35.472657-10.257812-14.113281 0-24.945312 5.425781-36.421875 11.160156-12.632812 6.3125-25.691406 12.839844-43.578125 12.839844-14.488281 0-29.984375-7.742188-46.160156-22.96875-2.664063 4.703125-5.261719 9.441406-8.015625 14.105469 8.753906 9.648437 32.097656 32.863281 54.175781 32.863281 14.113281 0 24.945313-5.425781 36.425781-11.160156 12.628907-6.3125 25.6875-12.839844 43.574219-12.839844 16.871094 0 29.753907 5.96875 42.199219 11.742188 13 6.027343 26.449219 12.257812 45.800781 12.257812 19.351563 0 32.800781-6.230469 45.800781-12.257812 12.449219-5.773438 25.328126-11.742188 42.199219-11.742188 17.886719 0 30.945313 6.527344 43.578125 12.839844 11.476563 5.734375 22.308594 11.160156 36.421875 11.160156 22.082031 0 45.425781-23.214844 54.167969-32.863281-2.75-4.664063-5.351562-9.402344-8.007812-14.105469zm0 0" data-original="#000000" class="active-path" data-old_color="#9E5555" fill="#FF4500"/><path d="m90.601562 412.839844c12.628907-6.3125 25.6875-12.839844 43.574219-12.839844 16.871094 0 29.753907 5.96875 42.199219 11.742188 13 6.027343 26.449219 12.257812 45.800781 12.257812 19.351563 0 32.800781-6.230469 45.800781-12.257812 12.449219-5.773438 25.328126-11.742188 42.199219-11.742188 17.886719 0 30.945313 6.527344 43.578125 12.839844 11.476563 5.734375 22.308594 11.160156 36.421875 11.160156 10.769531 0 24.160157-7.625 38.082031-21.472656-66.65625-123.496094-101.882812-261.808594-102.082031-402.527344h-48.246093c-2.167969 34.953125-18.539063 67.40625-45.648438 90l-10.105469 8.414062-10.105469-8.414062c-27.109374-22.59375-43.476562-55.039062-45.644531-90h-48.25c-.199219 140.71875-35.421875 279.039062-102.085937 402.535156 13.925781 13.832032 27.324218 21.464844 38.085937 21.464844 14.113281 0 24.945313-5.425781 36.425781-11.160156zm123.574219-292.839844h16v16h-16zm0 32h16v16h-16zm-91.71875 104c9.695313 0 18.808594 3.777344 25.65625 10.625l2.0625 2.0625 2.0625-2.0625c6.851563-6.847656 15.960938-10.625 25.65625-10.625 20.007813 0 36.28125 16.273438 36.28125 36.28125 0 9.695312-3.777343 18.808594-10.625 25.65625l-53.375 53.375-53.375-53.375c-6.847656-6.847656-10.625-15.960938-10.625-25.65625 0-20.007812 16.273438-36.28125 36.28125-36.28125zm0 0" data-original="#000000" class="active-path" data-old_color="#9E5555" fill="#FF4500"/></g> </svg>
