<?xml version="1.0"?>
<svg xmlns="http://www.w3.org/2000/svg" height="512px" viewBox="0 -39 511.99901 511" width="512px" class=""><g><path d="m272.082031 87.800781c4.351563 11.007813 14.902344 17.71875 26.0625 17.71875 3.429688 0 6.914063-.632812 10.300781-1.972656 8.050782-3.1875 13.789063-9.695313 16.292969-17.324219l-20.171875-7.046875 25.261719.929688 12.621094.464843c.082031.003907.167969.003907.25.003907 3.605469 0 6.59375-2.855469 6.726562-6.488281.042969-1.160157-.210937-2.265626-.695312-3.238282-.097657-.191406-.199219-.382812-.316407-.566406-1.140624-1.835938-3.148437-3.085938-5.46875-3.171875l-19.085937-.703125c-4.535156-10.542969-14.84375-16.941406-25.738281-16.941406-3.425782 0-6.914063.632812-10.292969 1.972656-14.390625 5.695312-21.441406 21.976562-15.746094 36.363281zm0 0" data-original="#000000" class="active-path" data-old_color="#ff4500" fill="#ff4500"/><path d="m458.042969 263.144531c3.363281-44.164062-37.183594-62.222656-37.183594-62.222656l-12.917969-32.144531h12.917969c6.195313 0 11.214844-5.019532 11.214844-11.210938 0-6.195312-5.019531-11.214844-11.214844-11.214844h-27.289063c-2.835937 0-5.535156 1.089844-7.589843 2.980469 11.101562 2.605469 18.710937 13.195313 17.324219 24.78125-.953126 7.988281-5.949219 14.5-12.695313 17.753907l19.375 77.277343c1.25 4.988281 5.734375 8.488281 10.875 8.488281 37.84375 0 68.644531 30.75 68.714844 68.578126 0 .078124-.003907.152343-.003907.222656 0 6.191406 5.019532 11.210937 11.214844 11.210937 6.097656 0 11.0625-4.871093 11.207032-10.933593.003906-.125.007812-.253907.007812-.363282 0-37.019531-22.1875-68.949218-53.957031-83.203125zm0 0" data-original="#000000" class="active-path" data-old_color="#ff4500" fill="#ff4500"/><path d="m257.398438 298.46875c-26.492188 0-47.964844 21.472656-47.964844 47.964844 0 26.488281 21.472656 47.964844 47.964844 47.964844 26.488281 0 47.964843-21.476563 47.964843-47.964844 0-26.492188-21.476562-47.964844-47.964843-47.964844zm0 63.808594c-8.75 0-15.84375-7.09375-15.84375-15.84375 0-8.753906 7.09375-15.84375 15.84375-15.84375s15.84375 7.089844 15.84375 15.84375c0 8.75-7.09375 15.84375-15.84375 15.84375zm0 0" data-original="#000000" class="active-path" data-old_color="#ff4500" fill="#ff4500"/><path d="m420.859375 298.46875c-26.488281 0-47.964844 21.472656-47.964844 47.964844 0 26.488281 21.476563 47.964844 47.964844 47.964844 26.492187 0 47.964844-21.476563 47.964844-47.964844 0-26.492188-21.472657-47.964844-47.964844-47.964844zm0 63.808594c-8.75 0-15.84375-7.09375-15.84375-15.84375 0-8.753906 7.09375-15.84375 15.84375-15.84375s15.84375 7.089844 15.84375 15.84375c0 8.75-7.09375 15.84375-15.84375 15.84375zm0 0" data-original="#000000" class="active-path" data-old_color="#ff4500" fill="#ff4500"/><path d="m169.988281 159.246094v.128906.242188c9.121094-6.484376 21.179688-6.195313 29.917969.109374l10.480469-27.601562c1.632812-4.300781-.53125-9.113281-4.832031-10.746094l-41.710938-15.832031c-4.328125-1.644531-9.121094.558594-10.746094 4.832031l-3.984375 10.496094c12.511719 8.324219 20.796875 22.417969 20.875 38.371094zm0 0" data-original="#000000" class="active-path" data-old_color="#ff4500" fill="#ff4500"/><path d="m196.828125 171.164062c-5.203125-6.601562-14.769531-7.738281-21.375-2.539062l-15.953125 12.5625v-21.890625c-.101562-19.761719-16.507812-35.835937-36.578125-35.835937-15.003906 0-46.660156 0-61.636719 0h-.3125l-29.480468-44.371094 13.472656-60.035156c1.839844-8.203126-3.316406-16.339844-11.519532-18.183594-8.203124-1.839844-16.339843 3.316406-18.179687 11.519531l-14.894531 66.375c-.910156 4.050781-.125 8.296875 2.171875 11.753906 39.277343 58.976563 37.394531 56.777344 39.136719 58.621094v266.152344c0 10.085937 8.09375 18.261719 18.179687 18.261719s18.265625-8.175782 18.265625-18.261719v-145.980469h7.882812v145.980469c0 10.085937 8.179688 18.261719 18.265626 18.261719 10.085937 0 18.261718-8.175782 18.261718-18.261719-.007812-9.054688 0-236.683594 0-261.394531h.382813c3.199219 0 6.125 2.648437 6.140625 5.472656v53.171875c0 5.832031 3.332031 11.148437 8.574218 13.691406 5.230469 2.539063 11.472657 1.878906 16.0625-1.734375l40.589844-31.960938c6.605469-5.203124 7.742188-14.769531 2.542969-21.375zm0 0" data-original="#000000" class="active-path" data-old_color="#ff4500" fill="#ff4500"/><path d="m82.070312 113.40625c14.976563 0 28-10.605469 30.933594-25.367188l-22.753906-5.867187c13.632812-.039063 24.847656-.070313 38.4375-.109375 3.769531-.011719 6.820312-3.078125 6.808594-6.847656-.011719-3.765625-3.066406-6.8125-6.828125-6.8125-.007813 0-.011719 0-.019531 0l-18.027344.050781c-5.042969-10.710937-15.929688-18.132813-28.550782-18.132813-17.421874 0-31.542968 14.125-31.542968 31.542969 0 17.527344 14.238281 31.542969 31.542968 31.542969zm0 0" data-original="#000000" class="active-path" data-old_color="#ff4500" fill="#ff4500"/><path d="m353.070312 316.78125c2.390626-1.609375 4.386719-3.867188 5.679688-6.675781l31.472656-68.394531c4.371094-9.492188-1.128906-21.175782-12.679687-22.957032l-49.226563-7.601562v-23.148438s-7.675781.035156-11.253906-3.878906l-26.238281-28.777344 31.367187 21.1875c1.78125 1.207032 3.828125 1.96875 5.964844 2.222656l51.007812 6.101563c7.707032.917969 14.671876-4.828125 15.121094-12.695313.410156-7.199218-5.140625-13.375-12.296875-14.230468l-47.363281-5.664063-28.648438-19.351562 22.339844 8.324219v-6.023438c0-10.261719-8.316406-18.582031-18.578125-18.582031h-31.046875c-5.609375-10.359375-12.03125-22.222657-15.136718-27.960938 1.414062-6.578125 10.519531-48.953125 11.929687-55.53125 1.570313-7.308593-3.078125-14.503906-10.386719-16.074219-7.3125-1.570312-14.503906 3.082032-16.078125 10.386719l-12.980469 60.417969c-.675781 3.15625-.207031 6.449219 1.332032 9.285156l19.765625 36.652344v96.257812h-16.230469c4.621094 0 8.363281-3.742187 8.363281-8.363281v-79.070312c0-4.621094-3.742187-8.367188-8.363281-8.367188h-19.050781c-.519531 1.953125-.023438.265625-13.492188 35.855469 4.679688 10.496094 1.855469 23.21875-7.585937 30.65625l-29.210938 23c.921875 3.613281 4.191406 6.289062 8.09375 6.289062h21.640625c-3.476562 0-6.292969 2.816407-6.292969 6.292969v27.78125c0 3.476563 2.816407 6.292969 6.292969 6.292969h7.839844c-20.867187 13.28125-35.898437 34.917969-40.375 60.199219-.695313 3.9375.386719 7.976562 2.953125 11.042969 2.566406 3.0625 6.359375 4.847656 10.355469 4.847656h.046875c6.109375 0 11.292968-4.417969 12.28125-10.445313 4.953125-30.28125 31.3125-53.484375 62.992187-53.484375 35.230469 0 63.898438 28.695313 63.832031 63.929688h35.800782c-.019532-10.1875 2.386718-20.367188 7.328125-29.746094zm-22.660156-22.996094c-6.691406-9.261718-15.097656-17.199218-24.757812-23.347656h28.179687c3.472657 0 6.292969-2.816406 6.292969-6.289062v-18.21875l11.488281 1.773437zm0 0" data-original="#000000" class="active-path" data-old_color="#ff4500" fill="#ff4500"/></g> </svg>
