<?xml version="1.0"?>
<svg xmlns="http://www.w3.org/2000/svg" height="512px" viewBox="0 0 512 512" width="512px" class=""><g><path d="m512 256c0 141.386719-114.613281 256-256 256s-256-114.613281-256-256 114.613281-256 256-256 256 114.613281 256 256zm0 0" fill="#eebf00" data-original="#EEBF00" class="" style="fill:#FF6600" data-old_color="#EEBF00"/><path d="m277.183594 76.933594-11.3125 11.3125-9.828125-9.828125-30.375 30.375 31.332031 30.457031-18.5 45.5-137.5 52.25-6.625 43.625 91.6875 91.6875-41.351562 41.355469 97.988281 97.992187c4.40625.226563 8.839843.339844 13.300781.339844 124.023438 0 227.433594-88.195312 250.96875-205.285156zm0 0" fill="#dc9e00" data-original="#DC9E00" class="active-path" style="fill:#FF9B00" data-old_color="#FF9300"/><path d="m367.292969 371.855469v41.820312h-222.585938s0-24.011719 0-41.820312c0-11.128907 9.105469-20.234375 20.234375-20.234375h182.117188c11.128906 0 20.234375 9.105468 20.234375 20.234375zm0 0" fill="#00ab94" data-original="#00AB94" class=""/><path d="m367.292969 371.855469v41.820312h-111.292969v-62.054687h91.058594c11.128906 0 20.234375 9.105468 20.234375 20.234375zm0 0" fill="#009184" data-original="#009184" class="" style="fill:#009184"/><path d="m428 255.703125c0 19.425781-15.785156 35.210937-35.210938 35.210937h-35.613281v-20.234374h35.613281c8.296876 0 14.976563-6.679688 14.976563-14.976563 0-5.664063-3.238281-10.722656-8.296875-13.152344l-106.035156-32.984375c-12.140625-3.234375-18.816406-12.339844-24.078125-19.425781-5.664063-7.890625-8.09375-10.519531-13.355469-10.519531s-7.691406 2.632812-13.355469 10.519531c-5.261719 7.085937-11.9375 16.191406-24.484375 19.425781l-107.246094 33.59375c-3.441406 1.820313-6.679687 6.878906-6.679687 12.542969 0 8.296875 6.679687 14.976563 14.976563 14.976563h35.613281v20.234374h-35.613281c-19.425782 0-35.210938-15.785156-35.210938-35.210937 0-13.355469 7.488281-25.292969 19.425781-31.363281l109.066407-34.199219c5.871093-1.414063 9.105468-5.664063 13.960937-12.140625 4.453125-5.867188 10.121094-13.558594 19.429687-16.796875v-11.9375c0-10.726563 5.058594-19.832031 10.117188-27.925781.402344-.808594 1.011719-1.820313 1.617188-2.628906 4.25-7.082032 8.5-13.761719 8.5-20.035157 0-5.664062-4.453126-10.117187-10.121094-10.117187-5.664063 0-10.117188 4.453125-10.117188 10.117187v10.121094h-20.234375v-10.117187c0-16.796876 13.558594-30.355469 30.351563-30.355469 16.796875 0 30.355468 13.558593 30.355468 30.355469 0 11.9375-6.273437 21.851562-11.738281 30.554687-4.25 7.082031-8.496093 13.757813-8.496093 20.03125v11.9375c9.308593 3.238281 14.972656 10.929687 19.425781 16.796875 4.855469 6.476562 8.09375 10.726562 13.554687 12.140625l108.058594 33.589844c13.355469 6.679687 20.84375 18.617187 20.84375 31.972656zm0 0" fill="#bbdcff" data-original="#BBDCFF" class="" style="fill:#0091FF" data-old_color="#0099FF"/><path d="m336.941406 250.441406h-161.882812c-16.796875 0-30.351563 13.558594-30.351563 30.355469v91.058594h222.585938v-91.058594c0-16.796875-13.554688-30.355469-30.351563-30.355469zm0 0" fill="#61d7a8" data-original="#61D7A8" class=""/><path d="m428 255.703125c0 19.425781-15.785156 35.210937-35.210938 35.210937h-35.613281v-20.234374h35.613281c8.296876 0 14.976563-6.679688 14.976563-14.976563 0-5.664063-3.238281-10.722656-8.296875-13.152344l-106.035156-32.984375c-12.140625-3.234375-18.816406-12.339844-24.078125-19.425781-5.664063-7.890625-8.09375-10.519531-13.355469-10.519531v-58.277344c.40625-.8125 1.011719-1.824219 1.617188-2.632812 4.25-7.082032 8.5-13.757813 8.5-20.03125 0-5.667969-4.453126-10.117188-10.117188-10.117188v-20.238281c16.796875 0 30.351562 13.558593 30.351562 30.355469 0 11.9375-6.273437 21.851562-11.738281 30.554687-4.246093 7.082031-8.496093 13.757813-8.496093 20.03125v11.9375c9.308593 3.238281 14.972656 10.929687 19.425781 16.796875 4.855469 6.476562 8.09375 10.726562 13.558593 12.140625l108.054688 33.589844c13.355469 6.679687 20.84375 18.617187 20.84375 31.972656zm0 0" fill="#9abadb" data-original="#9ABADB" class="" style="fill:#0091FF" data-old_color="#0099FF"/><path d="m367.292969 280.796875v91.058594h-111.292969v-121.414063h80.941406c16.796875 0 30.351563 13.558594 30.351563 30.355469zm0 0" fill="#00ab94" data-original="#00AB94" class=""/></g> </svg>
