<?xml version="1.0"?>
<svg xmlns="http://www.w3.org/2000/svg" height="512px" viewBox="-104 0 464 464" width="512px" class=""><g><path d="m119.976562 64v80h16v-80zm0 0" data-original="#000000" class="active-path" data-old_color="#000000" fill="#FF4500"/><path d="m39.976562 0h16v48h-16zm0 0" data-original="#000000" class="active-path" data-old_color="#000000" fill="#FF4500"/><path d="m127.976562 48c8.824219 0 16-7.175781 16-16s-7.175781-16-16-16h-56v32zm-16-24h16v16h-16zm0 0" data-original="#000000" class="active-path" data-old_color="#000000" fill="#FF4500"/><path d="m231.976562 16h16v32h-16zm0 0" data-original="#000000" class="active-path" data-old_color="#000000" fill="#FF4500"/><path d="m183.976562 48v-32h-28.449218c2.753906 4.726562 4.449218 10.144531 4.449218 16s-1.695312 11.273438-4.449218 16zm0 0" data-original="#000000" class="active-path" data-old_color="#000000" fill="#FF4500"/><path d="m199.976562 0h16v48h-16zm0 0" data-original="#000000" class="active-path" data-old_color="#000000" fill="#FF4500"/><path d="m1.839844 146.785156 13.800781 317.214844h8.335937v-334.230469c-3.273437 3.078125-6.710937 6-10.410156 8.636719zm0 0" data-original="#000000" class="active-path" data-old_color="#000000" fill="#FF4500"/><path d="m231.976562 129.769531v334.230469h8.335938l13.792969-317.214844-11.722657-8.371094c-3.695312-2.644531-7.136718-5.566406-10.40625-8.644531zm0 0" data-original="#000000" class="active-path" data-old_color="#000000" fill="#FF4500"/><path d="m151.976562 64v96h-48v-96h-48.480468c-1.375 17.273438-7.046875 33.785156-16.480469 48h.960937v352h56.429688l15.136719-272.457031c.488281-8.710938 7.703125-15.542969 16.433593-15.542969 8.726563 0 15.945313 6.832031 16.429688 15.542969l15.136719 272.457031h56.433593v-352h.96875c-9.433593-14.214844-15.105468-30.726562-16.480468-48zm0 0" data-original="#000000" class="active-path" data-old_color="#000000" fill="#FF4500"/><path d="m7.976562 16h16v32h-16zm0 0" data-original="#000000" class="active-path" data-old_color="#000000" fill="#FF4500"/><path d="m249.199219 64h-32.742188c2.320313 24.441406 15.054688 46.984375 35.222657 61.382812l3.257812 2.328126 1.007812-23.222657zm0 0" data-original="#000000" class="active-path" data-old_color="#000000" fill="#FF4500"/><path d="m39.496094 64h-32.742188l-6.753906 40.488281 1.007812 23.222657 3.257813-2.328126c20.175781-14.398437 32.910156-36.941406 35.230469-61.382812zm0 0" data-original="#000000" class="active-path" data-old_color="#000000" fill="#FF4500"/></g> </svg>
