<?xml version="1.0"?>
<svg xmlns="http://www.w3.org/2000/svg" xmlns:xlink="http://www.w3.org/1999/xlink" version="1.1" id="Capa_1" x="0px" y="0px" viewBox="0 0 512 512" style="enable-background:new 0 0 512 512;" xml:space="preserve" width="512px" height="512px" class=""><g><g>
	<g>
		<path d="M295.691,331.394c4.218,4.611,7.021,10.342,8.057,16.652c0.148,0.9,0.249,1.8,0.321,2.699h13.042    c10.401,0,19.544,5.482,24.698,13.707c9.391,2.126,18.318,6.832,25.629,14.144c18.079,18.079,20.303,46.004,6.681,66.51    l-12.495,56.863h66.455c7.409,0,13.416-6.006,13.416-13.416V331.394H295.691z" data-original="#000000" class="active-path" data-old_color="#ff4500" fill="#ff4500"/>
	</g>
</g><g>
	<g>
		<path d="M221.754,357.558l3.876,6.086c3.083,4.842,4.922,10.349,5.406,16.039c3.126-3.256,6.994-5.788,11.336-7.321    L221.754,357.558z" data-original="#000000" class="active-path" data-old_color="#ff4500" fill="#ff4500"/>
	</g>
</g><g>
	<g>
		<path d="M428.08,259.854H316.47l-14.986,9.309c-7.751,4.815-17.151,6.174-25.936,3.771l-15.463-4.231l-6.45,7.122h45.002    c1.907,0,3.453,1.546,3.453,3.453v15.474c0,1.907-1.546,3.453-3.453,3.453h-47.953l25.86,18.571h164.952v-43.507    C441.495,265.86,435.488,259.854,428.08,259.854z M378.253,294.441c-5.057,0-9.156-4.099-9.156-9.156s4.099-9.156,9.156-9.156    c5.057,0,9.156,4.099,9.156,9.156C387.409,290.342,383.31,294.441,378.253,294.441z M410.696,297.234    c-6.6,0-11.949-5.35-11.949-11.948c0-6.6,5.35-11.949,11.949-11.949c6.599,0,11.948,5.35,11.948,11.949    C422.644,291.885,417.294,297.234,410.696,297.234z" data-original="#000000" class="active-path" data-old_color="#ff4500" fill="#ff4500"/>
	</g>
</g><g>
	<g>
		<path d="M428.08,0H232.125c-7.409,0-13.416,6.006-13.416,13.416v43.507h222.786V13.416C441.495,6.006,435.488,0,428.08,0z     M302.089,35.893c0,1.907-1.546,3.453-3.453,3.453h-54.834c-1.907,0-3.453-1.546-3.453-3.453V20.419    c0-1.907,1.546-3.453,3.453-3.453h54.834c1.907,0,3.453,1.546,3.453,3.453V35.893z M378.253,36.674    c-5.057,0-9.156-4.099-9.156-9.156c0-5.057,4.099-9.156,9.156-9.156c5.057,0,9.156,4.099,9.156,9.156    C387.409,32.575,383.31,36.674,378.253,36.674z M410.696,39.468c-6.6,0-11.949-5.35-11.949-11.949s5.35-11.948,11.949-11.948    c6.599,0,11.948,5.35,11.948,11.948C422.644,34.118,417.294,39.468,410.696,39.468z" data-original="#000000" class="active-path" data-old_color="#ff4500" fill="#ff4500"/>
	</g>
</g><g>
	<g>
		<path d="M218.709,71.541v67.519c2.151-4.357,4.918-8.497,8.338-12.273c10.17-11.229,24.699-17.671,39.863-17.672h0.001    c9.89,0,19.477,2.716,27.812,7.766c20.726-18.739,52.735-18.119,72.714,1.861c19.047,19.046,20.485,49.014,4.346,69.73    c8.638,15.219,3.786,34.671-11.211,43.988l-15.545,9.656h83.051c7.409,0,13.416-6.006,13.416-13.416V71.541H218.709z" data-original="#000000" class="active-path" data-old_color="#ff4500" fill="#ff4500"/>
	</g>
</g><g>
	<g>
		<path d="M318.108,146.603c3.672,11.624,3.333,24.294-1.129,35.786l9.015-5.6c5.417-3.364,11.433-4.95,17.371-4.929    L318.108,146.603z" data-original="#000000" class="active-path" data-old_color="#ff4500" fill="#ff4500"/>
	</g>
</g><g>
	<g>
		<path d="M358.51,195.167c-5.223-8.409-16.274-10.993-24.684-5.769l-52.445,32.578l-16.711-4.573    c7.896,11.243,9.364,25.795,4.132,38.297l10.662,2.917c4.724,1.294,9.878,0.615,14.188-2.063l59.09-36.704    C361.15,214.627,363.732,203.576,358.51,195.167z" data-original="#000000" class="active-path" data-old_color="#ff4500" fill="#ff4500"/>
	</g>
</g><g>
	<g>
		<path d="M329.853,387.75v-7.878c0-7.037-5.705-12.743-12.742-12.743h-34.062c1.161-0.96,2.225-2.077,3.146-3.358    c5.701-7.939,4.03-19.173-4.104-25.015c-12.708-9.127-42.172-30.284-50.362-36.165l2.099-57.873l5.975,26.857l12.085-13.344    c9.908-10.94,9.072-27.841-1.869-37.749l-35.326-31.993c-10.913-9.884-27.816-9.1-37.749,1.869L85.289,292.345    c-2.788,4.304-3.979,9.511-3.062,14.91l13.22,77.933l-24.226,90.42c-2.984,11.139,3.625,22.587,14.764,25.571    c11.135,2.984,22.587-3.624,25.571-14.763l25.406-94.822c0.777-2.901,0.92-5.935,0.417-8.896    c-5.447-32.107-3.206-18.897-8.654-51.013l23.101,20.922c3.564,5.596,19.953,31.338,23.024,36.16v92.245    c0,11.531,9.347,20.879,20.879,20.879c8.486,0,15.773-5.071,19.039-12.339l-10.314-46.936    c-2.304-10.486,3.095-20.68,12.154-25.078v-34.854c0-3.725-1.118-7.84-3.267-11.213l-26.669-41.716    c-0.573-0.816-1.103-1.643-1.586-2.48l-0.068-0.107l0.024,0.026c-3.039-5.314-4.305-11.033-4.095-16.828    c0.087-2.413-0.948,2.002,16.926-63.379l-2.319,63.907c-0.215,5.928,2.524,11.666,7.457,15.21    c5.852,4.202,52.542,37.73,58.168,41.771c0.816,0.586,1.666,1.091,2.538,1.522c-3.319,2.3-5.496,6.132-5.496,10.476v7.212h-6.189    c-7.037,0-12.742,5.705-12.742,12.742v13.316h99.263v-13.316C338.551,394.203,334.906,389.441,329.853,387.75z" data-original="#000000" class="active-path" data-old_color="#ff4500" fill="#ff4500"/>
	</g>
</g><g>
	<g>
		<path d="M293.453,133.553c-16.209-14.679-41.227-13.414-55.881,2.767c-14.667,16.195-13.428,41.214,2.766,55.881    c16.195,14.667,41.214,13.428,55.881-2.766C310.887,173.239,309.648,148.22,293.453,133.553z" data-original="#000000" class="active-path" data-old_color="#ff4500" fill="#ff4500"/>
	</g>
</g><g>
	<g>
		<path d="M352.685,431.669c-24.73,0-101.491,0-126.251,0c-3.919,0-6.812,3.637-5.979,7.429l14.965,68.104    c0.617,2.808,3.099,4.797,5.973,4.797c17.644,0,77.07,0,96.331,0c2.869,0,5.358-1.995,5.973-4.797l14.965-68.104    C359.501,435.293,356.602,431.669,352.685,431.669z" data-original="#000000" class="active-path" data-old_color="#ff4500" fill="#ff4500"/>
	</g>
</g></g> </svg>
