<?xml version="1.0"?>
<svg xmlns="http://www.w3.org/2000/svg" height="512px" viewBox="-8 0 464 464" width="512px"><g><path d="m448 104c-.011719-10.167969-6.417969-19.230469-16-22.632812v22.632812c-.023438 20.738281-15.875 38.027344-36.535156 39.847656l-45.808594 45.808594c-.691406.679688-1.507812 1.222656-2.398438 1.601562-.25.109376-.496093.183594-.753906.269532-.65625.222656-1.339844.355468-2.03125.402344-.175781 0-.335937.09375-.503906.09375s-.191406-.054688-.296875-.054688c-4.316406-.082031-7.75-3.652344-7.671875-7.96875v-40h-72c-22.078125-.027344-39.972656-17.917969-40-40v-24h-32.335938c.210938 2.671875.335938 5.34375.335938 8-.027344 46.300781-30.644531 87.015625-75.117188 99.898438-44.476562 12.878906-92.113281-5.171876-116.882812-44.289063v192.390625h448zm-376 216h-48c-4.417969 0-8-3.582031-8-8v-48c0-4.417969 3.582031-8 8-8s8 3.582031 8 8v40h40c4.417969 0 8 3.582031 8 8s-3.582031 8-8 8zm168-104h32c4.417969 0 8 3.582031 8 8s-3.582031 8-8 8h-32c-4.417969 0-8-3.582031-8-8s3.582031-8 8-8zm144 80h-144c-4.417969 0-8-3.582031-8-8s3.582031-8 8-8h144c4.417969 0 8 3.582031 8 8s-3.582031 8-8 8zm0-32h-144c-4.417969 0-8-3.582031-8-8s3.582031-8 8-8h144c4.417969 0 8 3.582031 8 8s-3.582031 8-8 8zm0-32h-80c-4.417969 0-8-3.582031-8-8s3.582031-8 8-8h80c4.417969 0 8 3.582031 8 8s-3.582031 8-8 8zm0 0" data-original="#000000" class="active-path" data-old_color="##FF450" fill="#FF4500"/><path d="m80 50.222656c-4.945312 2.824219-7.996094 8.082032-7.996094 13.777344s3.050782 10.953125 7.996094 13.777344zm0 0" data-original="#000000" class="active-path" data-old_color="##FF450" fill="#FF4500"/><path d="m448 352h-448v8c0 13.253906 10.746094 24 24 24h400c13.257812 0 24-10.746094 24-24zm0 0" data-original="#000000" class="active-path" data-old_color="##FF450" fill="#FF4500"/><path d="m104 112c-.015625-5.691406-3.066406-10.941406-8-13.777344v27.554688c4.933594-2.835938 7.984375-8.085938 8-13.777344zm0 0" data-original="#000000" class="active-path" data-old_color="##FF450" fill="#FF4500"/><path d="m240 104c0 13.253906 10.746094 24 24 24h80c4.417969 0 8 3.582031 8 8v28.6875l34.34375-34.34375c1.5-1.5 3.535156-2.34375 5.65625-2.34375 13.257812 0 24-10.746094 24-24v-80c0-13.253906-10.742188-24-24-24h-128c-13.253906 0-24 10.746094-24 24zm120-48h16c4.417969 0 8 3.582031 8 8s-3.582031 8-8 8h-16c-4.417969 0-8-3.582031-8-8s3.582031-8 8-8zm-40 0h16c4.417969 0 8 3.582031 8 8s-3.582031 8-8 8h-16c-4.417969 0-8-3.582031-8-8s3.582031-8 8-8zm-40 0h16c4.417969 0 8 3.582031 8 8s-3.582031 8-8 8h-16c-4.417969 0-8-3.582031-8-8s3.582031-8 8-8zm0 0" data-original="#000000" class="active-path" data-old_color="##FF450" fill="#FF4500"/><path d="m.503906 97.28125c5.09375 47.355469 46.988282 82.035156 94.460938 78.195312 47.476562-3.839843 83.25-44.800781 80.667968-92.363281-2.582031-47.558593-42.582031-84.402343-90.195312-83.0781248-47.609375 1.3242188-85.5 40.3359378-85.4375 87.9648438-.015625 3.101562.152344 6.199219.503906 9.28125zm55.496094-33.28125c.054688-14.546875 9.914062-27.226562 24-30.863281v-9.136719h16v9.136719c14.085938 3.636719 23.945312 16.316406 24 30.863281 0 4.417969-3.582031 8-8 8s-8-3.582031-8-8c-.015625-5.691406-3.066406-10.941406-8-13.777344v30.914063c14.113281 3.589843 23.992188 16.300781 23.992188 30.863281s-9.878907 27.273438-23.992188 30.863281v9.136719h-16v-9.136719c-14.085938-3.636719-23.945312-16.316406-24-30.863281 0-4.417969 3.582031-8 8-8s8 3.582031 8 8c.019531 5.691406 3.066406 10.941406 8 13.777344v-30.914063c-14.085938-3.636719-23.945312-16.316406-24-30.863281zm0 0" data-original="#000000" class="active-path" data-old_color="##FF450" fill="#FF4500"/><path d="m368 448h-128v-48h-32v48h-128c-4.417969 0-8 3.582031-8 8s3.582031 8 8 8h288c4.417969 0 8-3.582031 8-8s-3.582031-8-8-8zm0 0" data-original="#000000" class="active-path" data-old_color="##FF450" fill="#FF4500"/></g> </svg>
