<?xml version="1.0"?>
<svg xmlns="http://www.w3.org/2000/svg" height="512px" viewBox="-20 1 511 511.999" width="512px"><g><path d="m470.953125 135.042969c0-15.542969-13.121094-28.144531-28.664063-28.144531h-55.464843c-2.726563 0-5.441407.300781-8.101563.894531l-51.816406 11.542969v43.8125l35.703125-7.617188v30.621094l34.113281-49.179688-24.929687 68.03125c-7.550781 1.808594-54.304688 13.015625-60.816407 14.578125-9.761718 2.339844-15.683593 12.132813-13.367187 21.792969 2.324219 9.691406 12.066406 15.699219 21.796875 13.367188l70.242188-16.835938c5.863281-1.40625 10.667968-5.652344 12.761718-11.359375l27.527344-75.125-9.371094 77.324219c-1.210937 9.972656-11.285156 23.261718-26.65625 26.945312l-30.734375 7.503906v224.46875c0 13.441407 11.449219 24.332032 24.886719 24.335938 13.4375 0 24.332031-10.894531 24.332031-24.332031l.011719-195.359375h10.152344c-.546875 3.582031-.210938-7.8125.257812 195.425781.039063 13.417969 10.925782 24.265625 24.332032 24.265625h.070312c13.4375-.039062 23.777344-10.964844 23.738281-24.398438-.148437-48.605468.011719-347.992187-.003906-352.558593zm0 0" data-original="#000000" class="active-path" data-old_color="#ff4500" fill="#ff4500"/><path d="m464.355469 44.769531c0 24.726563-20.046875 44.769531-44.769531 44.769531-24.726563 0-44.769532-20.042968-44.769532-44.769531 0-24.726562 20.042969-44.769531 44.769532-44.769531 24.722656 0 44.769531 20.042969 44.769531 44.769531zm0 0" data-original="#000000" class="active-path" data-old_color="#ff4500" fill="#ff4500"/><path d="m103.148438 230.335938-22.882813-54.273438 34.023437 46.039062c1.9375 2.617188 4.46875 4.738282 7.390626 6.183594l69.640624 34.441406c10.21875 5.050782 22.449219.773438 27.421876-9.273437 5.007812-10.136719.859374-22.414063-9.277344-27.421875l-65.199219-32.246094-31.078125-42.054687 32.785156 27.441406.085938.042969v-39.753906c-2.632813-12.785157-13.953125-22.398438-27.519532-22.398438h-51.453124c-15.519532 0-28.101563 12.582031-28.101563 28.097656v157.03125l14.574219 75.464844-50.46875 99.566406c-5.976563 11.796875-1.261719 26.207032 10.535156 32.183594 11.71875 5.941406 26.164062 1.339844 32.183594-10.53125l54.179687-106.894531c2.40625-4.746094 3.160157-10.15625 2.148438-15.382813l-14.433594-74.410156h8.273437l19.585938 78.070312-16.6875 103.996094c-2.097656 13.058594 6.789062 25.34375 19.847656 27.4375 13.054688 2.097656 25.339844-6.792968 27.4375-19.847656l17.464844-108.851562c.511719-3.203126.371094-6.476563-.417969-9.621094l-16.566406-71.183594v-46.101562l-31.101563-15.382813c-2.691406-1.722656-9.269531-2.984375-12.390624-10.367187zm0 0" data-original="#000000" class="active-path" data-old_color="#ff4500" fill="#ff4500"/><path d="m311.761719 130.046875c0-8.347656-6.765625-15.113281-15.113281-15.113281h-119.378907c-8.351562 0-15.117187 6.765625-15.117187 15.113281v57.128906l53.457031 26.4375c12.191406 6.03125 19.21875 18.332031 19.109375 31.082031h26.625c-.011719-.109374-.035156-.214843-.035156-.328124v-27.316407c0-1.804687-1.460938-3.269531-3.269532-3.269531h-.828124c-2.914063 0-4.371094-3.523438-2.3125-5.582031l17.117187-17.117188c1.277344-1.277343 3.347656-1.277343 4.621094 0l16.867187 16.867188c3.890625-2.886719 8.355469-4.988281 13.207032-6.152344l5.050781-1.210937zm0 0" data-original="#000000" class="active-path" data-old_color="#ff4500" fill="#ff4500"/><path d="m116.582031 97.265625c12.179688-4.820313 20.878907-14.65625 24.671875-26.195313l-30.535156-10.664062c61.796875 2.273438 57.382812 2.117188 57.671875 2.117188 5.449219 0 9.96875-4.320313 10.171875-9.8125.207031-5.621094-4.183594-10.347657-9.804688-10.554688l-28.863281-1.0625c-9.019531-20.964844-33.128906-31.09375-54.496093-22.640625-21.761719 8.613281-32.421876 33.234375-23.8125 55 8.609374 21.761719 33.234374 32.421875 54.996093 23.8125zm0 0" data-original="#000000" class="active-path" data-old_color="#ff4500" fill="#ff4500"/></g> </svg>
