<?xml version="1.0"?>
<svg xmlns="http://www.w3.org/2000/svg" height="512px" viewBox="0 -3 460.304 460" width="512px" class=""><g><path d="m102.152344 156.839844 88 88v-25.375l-88-88zm0 0" data-original="#000000" class="active-path" data-old_color="#000000" fill="#FF4500"/><path d="m159.167969 3.726562-64.207031 26.753907c-5.824219 2.421875-10.921876 6.230469-14.960938 10.945312 11.359375 20.527344 18.480469 43.046875 21.015625 66.277344l89.136719 89.136719v-116.617188l-22.839844 13.050782zm0 0" data-original="#000000" class="active-path" data-old_color="#000000" fill="#FF4500"/><path d="m279.3125 67.03125 6.078125-66.878906h-11.117187l-32.464844 45.449218zm0 0" data-original="#000000" class="active-path" data-old_color="#000000" fill="#FF4500"/><path d="m102.152344 433.792969 88 20.304687v-186.632812l-88-88zm0 0" data-original="#000000" class="active-path" data-old_color="#000000" fill="#FF4500"/><path d="m254.609375.152344h-48.914063l24.457032 34.230468zm0 0" data-original="#000000" class="active-path" data-old_color="#000000" fill="#FF4500"/><path d="m0 322.367188 48.160156 12.039062 3.769532-16.566406-47.496094-11.871094zm0 0" data-original="#000000" class="active-path" data-old_color="#000000" fill="#FF4500"/><path d="m8.609375 290.519531 46.863281 11.71875 30.679688-134.980469v-40.457031c0-23.417969-5.214844-46.457031-15.03125-67.578125zm0 0" data-original="#000000" class="active-path" data-old_color="#000000" fill="#FF4500"/><path d="m218.496094 45.601562-32.464844-45.449218h-11.121094l6.082032 66.878906zm0 0" data-original="#000000" class="active-path" data-old_color="#000000" fill="#FF4500"/><path d="m270.152344 454.097656 88-20.304687v-169.640625h-88zm0 0" data-original="#000000" class="active-path" data-old_color="#000000" fill="#FF4500"/><path d="m270.152344 232.152344h88v16h-88zm0 0" data-original="#000000" class="active-path" data-old_color="#000000" fill="#FF4500"/><path d="m365.34375 30.488281-64.207031-26.753906-8.144531 89.539063-22.839844-13.050782v135.929688h88v-89.351563c0-29.90625 7.695312-59.257812 22.152344-85.375-4.039063-4.714843-9.144532-8.523437-14.960938-10.9375zm0 0" data-original="#000000" class="active-path" data-old_color="#000000" fill="#FF4500"/><path d="m455.871094 305.96875-47.496094 11.871094 3.769531 16.566406 48.160157-12.039062zm0 0" data-original="#000000" class="active-path" data-old_color="#000000" fill="#FF4500"/><path d="m389.183594 59.222656c-9.816406 21.121094-15.03125 44.160156-15.03125 67.578125v40.457031l30.679687 134.980469 46.863281-11.71875zm0 0" data-original="#000000" class="active-path" data-old_color="#000000" fill="#FF4500"/><path d="m206.152344 71.078125v369.074219h48v-369.074219l-24-13.710937zm32 337.074219h-16v-16h16zm0-48h-16v-16h16zm0-56h-16v-16h16zm0-56h-16v-16h16zm0-56h-16v-16h16zm0-56h-16v-16h16zm0 0" data-original="#000000" class="active-path" data-old_color="#000000" fill="#FF4500"/></g> </svg>
