<?xml version="1.0"?>
<svg xmlns="http://www.w3.org/2000/svg" height="512px" viewBox="-17 0 464 464" width="512px" class=""><g><path d="m429.199219 177.976562-69.863281 12.703126v15.734374l71.335937-12.964843zm0 0" data-original="#000000" class="active-path" data-old_color="#000000" fill="#FF4500"/><path d="m0 193.449219 71.335938 12.964843v-15.734374l-69.863282-12.703126zm0 0" data-original="#000000" class="active-path" data-old_color="#000000" fill="#FF4500"/><path d="m87.335938 416h208v16h-208v32h256v-32h-32v-16h32v-16h-256zm0 0" data-original="#000000" class="active-path" data-old_color="#000000" fill="#FF4500"/><path d="m215.335938 64c36.992187 0 67.527343-28.054688 71.527343-64h-16.167969c-3.902343 27.097656-27.207031 48-55.359374 48-28.152344 0-51.457032-20.902344-55.359376-48h-16.167968c4 35.945312 34.535156 64 71.527344 64zm0 0" data-original="#000000" class="active-path" data-old_color="#000000" fill="#FF4500"/><path d="m359.335938 174.414062 68.34375-12.421874-8.28125-86.894532c-2.140626-22.503906-17.460938-41.402344-39.039063-48.144531l-77.734375-24.296875c-5.289062 43.511719-42.378906 77.34375-87.289062 77.34375-44.910157 0-82-33.832031-87.289063-77.34375l-77.734375 24.296875c-21.578125 6.734375-36.90625 25.640625-39.039062 48.144531l-8.28125 86.894532 68.34375 12.421874v-94.414062h16v304h256v-304h16zm-152-38.414062h16v16h-16zm-40 72h-16v-16h16zm56 56h-16v-16h16zm24-56h-24v24h-16v-24h-24v-16h24v-24h16v24h24zm32 0h-16v-16h16zm0 0" data-original="#000000" class="active-path" data-old_color="#000000" fill="#FF4500"/><path d="m215.335938 32c19.3125 0 35.472656-13.769531 39.191406-32h-78.382813c3.71875 18.230469 19.878907 32 39.191407 32zm0 0" data-original="#000000" class="active-path" data-old_color="#000000" fill="#FF4500"/></g> </svg>
