<?xml version="1.0"?>
<svg xmlns="http://www.w3.org/2000/svg" height="512px" viewBox="-123 0 455 455.056" width="512px" class=""><g><path d="m.0273438 0h32.0000002v32h-32.0000002zm0 0" data-original="#000000" class="active-path" data-old_color="#000000" fill="#FF4500"/><path d="m48.027344 0h16v32h-16zm0 0" data-original="#000000" class="active-path" data-old_color="#000000" fill="#FF4500"/><path d="m80.027344 0h48v32h-48zm0 0" data-original="#000000" class="active-path" data-old_color="#000000" fill="#FF4500"/><path d="m144.027344 0h16v32h-16zm0 0" data-original="#000000" class="active-path" data-old_color="#000000" fill="#FF4500"/><path d="m104.027344 124.6875 8-8v-68.6875h-16v68.6875zm0 0" data-original="#000000" class="active-path" data-old_color="#000000" fill="#FF4500"/><path d="m32.027344 80h-31.238282l1.09375 58.128906 30.144532-15.074218zm0 0" data-original="#000000" class="active-path" data-old_color="#000000" fill="#FF4500"/><path d="m176.027344 0h32v32h-32zm0 0" data-original="#000000" class="active-path" data-old_color="#000000" fill="#FF4500"/><path d="m128.027344 123.3125-24 24-24-24v-75.3125h-79.847656l.304687 16h47.542969v68.945312l-45.808594 22.902344 5.609375 297.121094 16.824219-5.609375 15.375 7.695313 15.382812-7.695313 17.210938 5.746094 14.976562-269.5625c.488282-8.710938 7.703125-15.542969 16.429688-15.542969 8.730468 0 15.945312 6.832031 16.433594 15.535156l14.976562 269.5625 17.207031-5.746094 15.382813 7.703126 15.382812-7.695313 16.824219 5.609375 5.609375-297.121094-45.816406-22.902344v-68.945312h47.542968l.304688-16h-79.847656zm0 0" data-original="#000000" class="active-path" data-old_color="#000000" fill="#FF4500"/><path d="m176.027344 123.054688 30.144531 15.074218 1.097656-58.128906h-31.242187zm0 0" data-original="#000000" class="active-path" data-old_color="#000000" fill="#FF4500"/></g> </svg>
