<?xml version="1.0"?>
<svg xmlns="http://www.w3.org/2000/svg" id="Layer_5" enable-background="new 0 0 64 64" height="512px" viewBox="0 0 64 64" width="512px"><g><path d="m42 11h2c0-2.206 1.794-4 4-4v-2c-2.206 0-4-1.794-4-4h-2c0 2.206-1.794 4-4 4v2c2.206 0 4 1.794 4 4z" data-original="#000000" class="active-path" data-old_color="#000000" fill="#FF4500"/><path d="m5 20h2c0-2.206 1.794-4 4-4v-2c-2.206 0-4-1.794-4-4h-2c0 2.206-1.794 4-4 4v2c2.206 0 4 1.794 4 4z" data-original="#000000" class="active-path" data-old_color="#000000" fill="#FF4500"/><path d="m59 16h-2c0 2.206-1.794 4-4 4v2c2.206 0 4 1.794 4 4h2c0-2.206 1.794-4 4-4v-2c-2.206 0-4-1.794-4-4z" data-original="#000000" class="active-path" data-old_color="#000000" fill="#FF4500"/><path d="m19 49.142v2.126l1.849-1.068c-.5-.509-1.138-.873-1.849-1.058z" data-original="#000000" class="active-path" data-old_color="#000000" fill="#FF4500"/><path d="m20 53 1.839 1.061c.094-.34.161-.691.161-1.061s-.067-.721-.161-1.061z" data-original="#000000" class="active-path" data-old_color="#000000" fill="#FF4500"/><path d="m19 56.858c.711-.185 1.349-.549 1.849-1.058l-1.849-1.068z" data-original="#000000" class="active-path" data-old_color="#000000" fill="#FF4500"/><path d="m18 45c-4.411 0-8 3.589-8 8s3.589 8 8 8 8-3.589 8-8-3.589-8-8-8zm0 14c-3.309 0-6-2.691-6-6s2.691-6 6-6 6 2.691 6 6-2.691 6-6 6z" data-original="#000000" class="active-path" data-old_color="#000000" fill="#FF4500"/><path d="m31 33h-13v10c3.692 0 6.915 2.016 8.647 5h4.353zm-3 4h-4v-2h4z" data-original="#000000" class="active-path" data-old_color="#000000" fill="#FF4500"/><path d="m27.949 52h8.101c.069-.69.208-1.359.41-2h-8.922c.203.641.343 1.31.411 2z" data-original="#000000" class="active-path" data-old_color="#000000" fill="#FF4500"/><path d="m31 21h-9.438c-.46 0-.859.312-.97.758l-2.311 9.242h12.719z" data-original="#000000" class="active-path" data-old_color="#000000" fill="#FF4500"/><path d="m5 52h3.051c.069-.69.208-1.359.41-2h-5.461c0 1.103.897 2 2 2z" data-original="#000000" class="active-path" data-old_color="#000000" fill="#FF4500"/><path d="m17 51.268v-2.126c-.711.185-1.349.549-1.849 1.058z" data-original="#000000" class="active-path" data-old_color="#000000" fill="#FF4500"/><path d="m3 33.459v3.541h3c.551 0 1-.449 1-1v-4.98l-2.392.478c-.932.187-1.608 1.011-1.608 1.961z" data-original="#000000" class="active-path" data-old_color="#000000" fill="#FF4500"/><path d="m14.161 51.939c-.094.34-.161.691-.161 1.061s.067.721.161 1.061l1.839-1.061z" data-original="#000000" class="active-path" data-old_color="#000000" fill="#FF4500"/><path d="m17 56.858v-2.126l-1.849 1.068c.5.509 1.138.873 1.849 1.058z" data-original="#000000" class="active-path" data-old_color="#000000" fill="#FF4500"/><path d="m17 15h30c.551 0 1-.449 1-1s-.449-1-1-1h-30c-.551 0-1 .449-1 1s.449 1 1 1z" data-original="#000000" class="active-path" data-old_color="#000000" fill="#FF4500"/><path d="m45 51.268v-2.126c-.711.185-1.349.549-1.849 1.058z" data-original="#000000" class="active-path" data-old_color="#000000" fill="#FF4500"/><path d="m47 56.858c.711-.185 1.349-.549 1.849-1.058l-1.849-1.068z" data-original="#000000" class="active-path" data-old_color="#000000" fill="#FF4500"/><path d="m47 49.142v2.126l1.849-1.068c-.5-.509-1.138-.873-1.849-1.058z" data-original="#000000" class="active-path" data-old_color="#000000" fill="#FF4500"/><path d="m48 53 1.839 1.061c.094-.34.161-.691.161-1.061s-.067-.721-.161-1.061z" data-original="#000000" class="active-path" data-old_color="#000000" fill="#FF4500"/><path d="m46 45c-4.411 0-8 3.589-8 8s3.589 8 8 8 8-3.589 8-8-3.589-8-8-8zm0 14c-3.309 0-6-2.691-6-6s2.691-6 6-6 6 2.691 6 6-2.691 6-6 6z" data-original="#000000" class="active-path" data-old_color="#000000" fill="#FF4500"/><path d="m59 43c0 .551.449 1 1 1h1v-2h-1c-.551 0-1 .449-1 1z" data-original="#000000" class="active-path" data-old_color="#000000" fill="#FF4500"/><path d="m55.949 52h3.051c1.103 0 2-.897 2-2h-5.461c.202.641.342 1.31.41 2z" data-original="#000000" class="active-path" data-old_color="#000000" fill="#FF4500"/><path d="m59.393 31.498-5.368-1.073c-1.712-.343-3.141-1.577-3.728-3.221l-3.645-10.204h-29.304l-3.644 10.204c-.587 1.644-2.016 2.878-3.728 3.221l-.976.195v5.38c0 1.654-1.346 3-3 3h-3v2h4v2h-4v5h6.353c1.411-2.431 3.81-4.221 6.649-4.799l.028-11.444 2.621-10.485c.334-1.337 1.531-2.272 2.911-2.272h20.877c1.379 0 2.576.935 2.911 2.272l2.65 10.728v11.202c2.839.578 5.236 2.368 6.647 4.798h6.353v-2h-1c-1.654 0-3-1.346-3-3s1.346-3 3-3h1v-6.541c0-.95-.676-1.774-1.607-1.961z" data-original="#000000" class="active-path" data-old_color="#000000" fill="#FF4500"/><path d="m46 43v-10h-13v15h4.353c1.732-2.984 4.955-5 8.647-5zm-10-6v-2h4v2z" data-original="#000000" class="active-path" data-old_color="#000000" fill="#FF4500"/><path d="m45 56.858v-2.126l-1.849 1.068c.5.509 1.138.873 1.849 1.058z" data-original="#000000" class="active-path" data-old_color="#000000" fill="#FF4500"/><path d="m42.438 21h-9.438v10h12.719l-2.311-9.242c-.111-.446-.51-.758-.97-.758z" data-original="#000000" class="active-path" data-old_color="#000000" fill="#FF4500"/><path d="m42.161 51.939c-.094.34-.161.691-.161 1.061s.067.721.161 1.061l1.839-1.061z" data-original="#000000" class="active-path" data-old_color="#000000" fill="#FF4500"/></g> </svg>
