<?xml version="1.0"?>
<svg xmlns="http://www.w3.org/2000/svg" height="512px" viewBox="-51 0 512 512" width="512px" class=""><g><path d="m170.667969 102.398438h238.933593v-76.796876c0-14.117187-11.488281-25.601562-25.601562-25.601562h-213.332031zm42.664062-17.066407h-8.53125c-4.710937 0-8.535156-3.820312-8.535156-8.53125 0-4.710937 3.824219-8.535156 8.535156-8.535156h8.53125c4.710938 0 8.535157 3.824219 8.535157 8.535156 0 4.710938-3.824219 8.53125-8.535157 8.53125zm128-59.730469c18.824219 0 34.132813 15.308594 34.132813 34.132813s-15.308594 34.132813-34.132813 34.132813-34.132812-15.308594-34.132812-34.132813 15.308593-34.132813 34.132812-34.132813zm-68.265625 8.53125h8.535156c4.707032 0 8.53125 3.824219 8.53125 8.535157 0 4.710937-3.824218 8.53125-8.53125 8.53125h-8.535156c-4.710937 0-8.53125-3.820313-8.53125-8.53125 0-4.710938 3.820313-8.535157 8.53125-8.535157zm0 34.132813h8.535156c4.707032 0 8.53125 3.824219 8.53125 8.535156 0 4.710938-3.824218 8.53125-8.53125 8.53125h-8.535156c-4.710937 0-8.53125-3.820312-8.53125-8.53125 0-4.710937 3.820313-8.535156 8.53125-8.535156zm-34.132812-34.132813h8.53125c4.710937 0 8.535156 3.824219 8.535156 8.535157 0 4.710937-3.824219 8.53125-8.535156 8.53125h-8.53125c-4.710938 0-8.535156-3.820313-8.535156-8.53125 0-4.710938 3.824218-8.535157 8.535156-8.535157zm0 34.132813h8.53125c4.710937 0 8.535156 3.824219 8.535156 8.535156 0 4.710938-3.824219 8.53125-8.535156 8.53125h-8.53125c-4.710938 0-8.535156-3.820312-8.535156-8.53125 0-4.710937 3.824218-8.535156 8.535156-8.535156zm-34.132813-34.132813h8.53125c4.710938 0 8.535157 3.824219 8.535157 8.535157 0 4.710937-3.824219 8.53125-8.535157 8.53125h-8.53125c-4.710937 0-8.535156-3.820313-8.535156-8.53125 0-4.710938 3.824219-8.535157 8.535156-8.535157zm0 0" data-original="#000000" class="active-path" data-old_color="#000000" fill="#FF4500"/><path d="m153.601562 102.398438v-102.398438h-128c-14.117187 0-25.601562 11.484375-25.601562 25.601562v76.796876zm-119.46875-50.164063c0-9.976563 8.125-18.101563 18.101563-18.101563h66.199219c9.976562 0 18.101562 8.125 18.101562 18.101563v1.585937c0 17.375-14.140625 31.511719-31.515625 31.511719h-39.371093c-17.375 0-31.515626-14.136719-31.515626-31.511719zm0 0" data-original="#000000" class="active-path" data-old_color="#000000" fill="#FF4500"/><path d="m358.398438 59.734375c0 9.425781-7.640626 17.066406-17.066407 17.066406s-17.066406-7.640625-17.066406-17.066406 7.640625-17.066406 17.066406-17.066406 17.066407 7.640625 17.066407 17.066406zm0 0" data-original="#000000" class="active-path" data-old_color="#000000" fill="#FF4500"/><path d="m65.648438 68.265625h39.371093c7.96875 0 14.445313-6.476563 14.445313-14.445313v-1.585937c0-.574219-.457032-1.035156-1.03125-1.035156h-66.199219c-.574219 0-1.035156.460937-1.035156 1.035156v1.585937c0 7.96875 6.484375 14.445313 14.449219 14.445313zm0 0" data-original="#000000" class="active-path" data-old_color="#000000" fill="#FF4500"/><path d="m102.835938 290.132812c-.230469-2.824218-.4375-5.648437-.4375-8.53125 0-56.464843 45.9375-102.402343 102.402343-102.402343 56.464844 0 102.398438 45.9375 102.398438 102.402343 0 2.882813-.195313 5.707032-.433594 8.53125h17.066406c.203125-2.832031.433594-5.648437.433594-8.53125 0-65.878906-53.589844-119.46875-119.464844-119.46875-65.878906 0-119.46875 53.589844-119.46875 119.46875 0 2.882813.230469 5.699219.4375 8.53125zm0 0" data-original="#000000" class="active-path" data-old_color="#000000" fill="#FF4500"/><path d="m303.890625 307.199219c-.113281.417969-.265625.820312-.378906 1.238281-8.0625 29.550781-29.804688 54.792969-57.921875 67.019531-25.933594 11.28125-56.59375 11.136719-82.425782-.367187-27.722656-12.355469-49.089843-37.398438-57.078124-66.652344-.109376-.417969-.265626-.8125-.367188-1.238281h-17.492188c2.910157 13.289062 8.046876 25.695312 14.933594 36.875.195313.324219.390625.648437.589844.972656 1.585938 2.507813 3.265625 4.957031 5.023438 7.328125.28125.382812.5625.769531.855468 1.144531 1.789063 2.371094 3.667969 4.675781 5.628906 6.902344.222657.257813.453126.496094.683594.75 33.382813 37.25 88.261719 49.828125 134.539063 30.660156 16.460937-6.816406 31.273437-17.421875 43.1875-30.660156.21875-.246094.449219-.492187.679687-.75 1.964844-2.226563 3.832032-4.53125 5.625-6.902344.289063-.375.570313-.761719.851563-1.144531 1.769531-2.378906 3.441406-4.820312 5.027343-7.328125.203126-.324219.394532-.648437.589844-.972656 6.894532-11.179688 12.03125-23.585938 14.933594-36.875zm0 0" data-original="#000000" class="active-path" data-old_color="#000000" fill="#FF4500"/><path d="m170.667969 119.464844h-170.667969v366.933594c0 14.117187 11.484375 25.601562 25.601562 25.601562h358.398438c14.113281 0 25.601562-11.484375 25.601562-25.601562v-366.933594zm169.324219 180.328125c-.023438.171875-.066407.324219-.09375.496093-6.457032 46.964844-37.953126 87.984376-81.492188 106.640626-17.375 7.441406-36.285156 11.347656-55.203125 11.117187-48.042969-.5625-93.464844-27.628906-117.128906-69.375-8.453125-14.917969-14.035157-31.410156-16.375-48.390625-.015625-.171875-.066407-.324219-.085938-.554688-.792969-5.949218-1.347656-11.972656-1.347656-18.136718 0-75.28125 61.253906-136.53125 136.535156-136.53125 75.289063 0 136.53125 61.25 136.53125 136.53125 0 6.171875-.554687 12.195312-1.339843 18.203125zm0 0" data-original="#000000" class="active-path" data-old_color="#000000" fill="#FF4500"/><path d="m122.554688 303.855469c6.085937 21.742187 20.753906 41.042969 40.578124 52.148437 23.167969 12.976563 52.511719 14.25 76.722657 3.335938 25.003906-11.28125 43.808593-35.242188 48.800781-62.25.929688-5.027344 1.476562-10.191406 1.476562-15.488282 0-47.054687-38.28125-85.335937-85.332031-85.335937-47.054687 0-85.335937 38.28125-85.335937 85.335937 0 7.542969 1.078125 15.035157 3.089844 22.253907zm82.246093-90.523438c4.710938 0 8.53125 3.824219 8.53125 8.535157 0 4.710937-3.820312 8.53125-8.53125 8.53125-28.230469 0-51.199219 22.964843-51.199219 51.203124 0 4.707032-3.824218 8.53125-8.535156 8.53125-4.710937 0-8.53125-3.824218-8.53125-8.53125 0-37.640624 30.625-68.269531 68.265625-68.269531zm0 0" data-original="#000000" class="active-path" data-old_color="#000000" fill="#FF4500"/></g> </svg>
