<?xml version="1.0"?>
<svg xmlns="http://www.w3.org/2000/svg" height="512px" viewBox="0 0 64 64" width="512px" class=""><g><path d="m8 23v2h7.506l-.381-2z" data-original="#000000" class="active-path" data-old_color="#000000" fill="#FF4500"/><path d="m48.494 25h7.506v-2h-7.125z" data-original="#000000" class="active-path" data-old_color="#000000" fill="#FF4500"/><path d="m56 13a9.01 9.01 0 0 0 -9-9h-3.826l4.585 5.349a1 1 0 0 1 -.2 1.483l-5.266 3.51 1.607 3.211a1 1 0 0 1 -.307 1.256l-10.593 7.7v7.491h-2v-7.491l-10.588-7.7a1 1 0 0 1 -.307-1.256l1.606-3.211-5.266-3.51a1 1 0 0 1 -.2-1.483l4.581-5.349h-3.826a9.01 9.01 0 0 0 -9 9v8h6.744l-.726-3.813 1.964-.374 4 21a.985.985 0 0 1 -.016.445l-3.966 14.873v6.869h32v-6.869l-3.966-14.873a.985.985 0 0 1 -.016-.445l4-21 1.964.374-.726 3.813h6.744zm-23 45h-2v-2h2zm0-4h-2v-2h2zm0-4h-2v-2h2zm0-4h-2v-2h2zm0-4h-2v-2h2zm0-4h-2v-2h2zm11-10h-8v-2h8z" data-original="#000000" class="active-path" data-old_color="#000000" fill="#FF4500"/><path d="m40.445 13.168 5.061-3.374-4.181-4.879-7.147 18.265 7.549-5.491-1.627-3.242a1 1 0 0 1 .345-1.279z" data-original="#000000" class="active-path" data-old_color="#000000" fill="#FF4500"/><path d="m18.494 9.794 5.061 3.374a1 1 0 0 1 .34 1.279l-1.622 3.242 7.549 5.491-7.147-18.265z" data-original="#000000" class="active-path" data-old_color="#000000" fill="#FF4500"/><path d="m39.535 4h-15.07l7.535 19.256z" data-original="#000000" class="active-path" data-old_color="#000000" fill="#FF4500"/></g> </svg>
